HIERARCHY
ROOT Hips
{
	OFFSET 0.000000 0.000000 0.000000 
	CHANNELS 6 Xposition Yposition Zposition Zrotation Yrotation Xrotation
	JOINT LeftUpLeg
	{
		OFFSET 1.363060 -1.794630 0.839290 
		CHANNELS 3 Zrotation Yrotation Xrotation
		JOINT LeftLeg
		{
			OFFSET 2.448110 -6.726130 0.000000 
			CHANNELS 3 Zrotation Yrotation Xrotation
			JOINT LeftFoot
			{
				OFFSET 2.562200 -7.039590 0.000000 
				CHANNELS 3 Zrotation Yrotation Xrotation
				JOINT LeftToeBase
				{
					OFFSET 0.157640 -0.433110 2.322550 
					CHANNELS 3 Zrotation Yrotation Xrotation
					End Site
					{
						OFFSET 0.000000 0.000000 0.000000 
					}
				}
			}
		}
	}
	JOINT RightUpLeg
	{
		OFFSET -1.305520 -1.794630 0.839290 
		CHANNELS 3 Zrotation Yrotation Xrotation
		JOINT RightLeg
		{
			OFFSET -2.542530 -6.985550 0.000000 
			CHANNELS 3 Zrotation Yrotation Xrotation
			JOINT RightFoot
			{
				OFFSET -2.568260 -7.056230 0.000000 
				CHANNELS 3 Zrotation Yrotation Xrotation
				JOINT RightToeBase
				{
					OFFSET -0.164730 -0.452590 2.363150 
					CHANNELS 3 Zrotation Yrotation Xrotation
					End Site
					{
						OFFSET 0.000000 0.000000 0.000000 
					}
				}
			}
		}
	}
	JOINT Spine
	{
		OFFSET 0.028270 2.035590 -0.193380 
		CHANNELS 3 Zrotation Yrotation Xrotation
		JOINT Spine1
		{
			OFFSET 0.056720 2.048850 -0.042750 
			CHANNELS 3 Zrotation Yrotation Xrotation
			JOINT Neck1
			{
				OFFSET -0.054170 1.746240 0.172020 
				CHANNELS 3 Zrotation Yrotation Xrotation
				JOINT Head
				{
					OFFSET 0.104070 1.761360 -0.123970 
					CHANNELS 3 Zrotation Yrotation Xrotation
					End Site
					{
						OFFSET 0.000000 0.000000 0.000000 
					}
				}
			}
			JOINT LeftArm
			{
				OFFSET 3.362410 1.200890 -0.311210 
				CHANNELS 3 Zrotation Yrotation Xrotation
				JOINT LeftForeArm
				{
					OFFSET 4.983000 -0.000000 -0.000000 
					CHANNELS 3 Zrotation Yrotation Xrotation
					JOINT LeftHand
					{
						OFFSET 3.483560 -0.000000 -0.000000 
						CHANNELS 3 Zrotation Yrotation Xrotation
						JOINT LeftHandIndex1
						{
							OFFSET 0.715260 -0.000000 -0.000000 
							CHANNELS 3 Zrotation Yrotation Xrotation
							End Site
							{
								OFFSET 0.000000 0.000000 0.000000 
							}
						}
					}
				}
			}
			JOINT RightArm
			{
				OFFSET -3.136600 1.374050 -0.404650 
				CHANNELS 3 Zrotation Yrotation Xrotation
				JOINT RightForeArm
				{
					OFFSET -5.241900 -0.000000 -0.000000 
					CHANNELS 3 Zrotation Yrotation Xrotation
					JOINT RightHand
					{
						OFFSET -3.444170 -0.000000 -0.000000 
						CHANNELS 3 Zrotation Yrotation Xrotation
						JOINT RightHandIndex1
						{
							OFFSET -0.622530 -0.000000 -0.000000 
							CHANNELS 3 Zrotation Yrotation Xrotation
							End Site
							{
								OFFSET 0.000000 0.000000 0.000000 
							}
						}
					}
				}
			}
		}
	}
}
MOTION
Frames: 13
Frame Time: 0.041667
10.163355 17.887360 9.573149 -179.630696 -0.650645 -151.994710 -22.963484 -20.510610 -20.739292 -1.224946 5.105713 10.642554 0.970675 0.018400 -18.211701 5.126700 -13.525100 -41.367400 27.825078 22.217741 -20.243795 1.139287 -5.232127 10.854185 -1.223917 -1.714335 -23.274703 -2.211300 9.292900 -26.716000 1.431011 -0.230021 -5.789847 -0.213522 -1.111704 12.725443 13.091949 -2.192962 17.089981 2.966200 -0.438600 2.864800 -105.897906 -6.205777 17.647607 10.322035 -10.473902 -1.187693 -1.709729 1.359180 12.484624 -7.125000 0.000000 0.000000 100.119441 0.247333 8.942909 -11.999618 21.592213 -3.026039 1.275755 3.611571 4.932917 7.125000 0.000000 0.000000 
10.162918 17.887251 9.573149 -179.643648 -0.666111 -152.019715 -22.992290 -20.514066 -20.720508 -1.224309 5.102228 10.636578 0.968615 -0.008411 -18.224121 5.111500 -13.508200 -41.302000 27.864473 22.063041 -20.170845 1.139438 -5.182767 10.758970 -1.224240 -1.665314 -23.248364 -2.329300 9.520700 -27.438200 1.431622 -0.238258 -5.794441 -0.213619 -1.113858 12.688463 13.080959 -2.183777 17.093818 2.970600 -0.433700 2.878300 -105.884881 -6.200369 17.726650 10.328630 -10.479655 -1.188236 -1.720042 1.339491 12.407681 -7.125000 0.000000 0.000000 100.119444 0.254145 8.945522 -12.034531 21.648698 -3.045748 1.280536 3.642314 4.896712 7.125000 0.000000 0.000000 
10.162700 17.888016 9.571948 -179.683060 -0.679264 -152.033438 -23.057916 -20.485405 -20.707515 -1.221426 5.102865 10.643675 0.961767 -0.062610 -18.214373 5.115800 -13.513100 -41.320800 27.829811 22.038240 -20.166358 1.132819 -5.198235 10.809696 -1.230146 -1.551274 -23.282222 -2.351200 9.562300 -27.570500 1.419988 -0.227555 -5.800022 -0.222615 -1.109602 12.653894 13.077943 -2.186641 17.090198 2.969700 -0.435300 2.879300 -105.853645 -6.144640 17.947195 10.345945 -10.505218 -1.193430 -1.731571 1.319713 12.212516 -7.125000 0.000000 0.000000 100.147781 0.238443 8.931789 -12.060955 21.694156 -3.061938 1.288830 3.669587 4.859121 7.125000 0.000000 0.000000 
10.162918 17.888889 9.572275 -179.713477 -0.682560 -152.040491 -23.113969 -20.458585 -20.681047 -1.219739 5.086493 10.607868 0.951256 -0.107175 -18.143135 5.167100 -13.569500 -41.539500 27.794124 22.025952 -20.119577 1.133005 -5.162008 10.727032 -1.222392 -1.525995 -23.198921 -2.279300 9.425100 -27.134200 1.408003 -0.218949 -5.803522 -0.237324 -1.106638 12.631033 13.071233 -2.183426 17.085142 2.969300 -0.434200 2.879300 -105.828533 -6.108992 18.015396 10.344271 -10.505943 -1.194984 -1.726916 1.332356 12.210395 -7.125000 0.000000 0.000000 100.199380 0.230260 8.886590 -12.095981 21.737712 -3.072416 1.273713 3.637527 4.920988 7.125000 0.000000 0.000000 
10.162590 17.887906 9.573368 -179.707077 -0.698044 -152.016867 -23.095539 -20.493846 -20.674204 -1.224287 5.060435 10.535034 0.952825 -0.063983 -18.097487 5.254300 -13.664600 -41.910200 27.791442 22.027473 -20.154952 1.137535 -5.172362 10.742631 -1.222912 -1.653605 -23.226868 -2.305300 9.474900 -27.292500 1.409484 -0.226031 -5.811090 -0.249754 -1.109178 12.609560 13.069183 -2.180923 17.080115 2.971100 -0.432900 2.883300 -105.841505 -6.093878 18.022713 10.334583 -10.491544 -1.193876 -1.728932 1.357507 12.277378 -7.125000 0.000000 0.000000 100.214230 0.225610 8.877657 -12.133103 21.781969 -3.082990 1.262053 3.591960 4.978799 7.125000 0.000000 0.000000 
10.163136 17.886377 9.574132 -179.663000 -0.727352 -151.966093 -23.006429 -20.508493 -20.758052 -1.226369 5.069573 10.540361 0.955803 -0.042836 -18.118504 5.288600 -13.701600 -42.054900 27.845001 21.989866 -20.208943 1.143566 -5.165302 10.708342 -1.222411 -1.730514 -23.242813 -2.393200 9.641000 -27.821900 1.421225 -0.236722 -5.817187 -0.246109 -1.112344 12.616148 13.074983 -2.179270 17.079408 2.972600 -0.432100 2.881000 -105.877510 -6.077209 18.093417 10.361882 -10.533196 -1.201401 -1.736509 1.343500 12.229254 -7.125000 0.000000 0.000000 100.174569 0.202755 8.979597 -12.153746 21.810087 -3.090512 1.257471 3.575956 4.898940 7.125000 0.000000 0.000000 
10.163901 17.886814 9.573804 -179.619361 -0.768452 -151.944634 -22.935255 -20.495279 -20.802172 -1.223869 5.083845 10.572955 0.950901 -0.090742 -18.138761 5.199800 -13.605300 -41.678700 27.897217 22.029732 -20.215698 1.145843 -5.160047 10.685000 -1.222080 -1.718506 -23.244820 -2.340800 9.542500 -27.507600 1.424700 -0.253338 -5.817448 -0.277728 -1.118046 12.633064 13.074233 -2.179639 17.079891 2.971400 -0.431800 2.883200 -105.882118 -6.069035 18.144042 10.399554 -10.595212 -1.212875 -1.730820 1.331195 12.172243 -7.125000 0.000000 0.000000 100.171629 0.230253 9.040846 -12.139359 21.789905 -3.083575 1.247401 3.572319 4.847896 7.125000 0.000000 0.000000 
10.163573 17.887251 9.571729 -179.589434 -0.787158 -151.975897 -22.910502 -20.502772 -20.732812 -1.224129 5.069865 10.551803 0.951113 -0.106282 -18.157481 5.096500 -13.491700 -41.238100 27.946673 21.999698 -20.174088 1.141161 -5.149599 10.672501 -1.221406 -1.584508 -23.211466 -2.225000 9.319800 -26.801000 1.420536 -0.251944 -5.810592 -0.320867 -1.115196 12.657271 13.074169 -2.180868 17.076838 2.974100 -0.432000 2.887200 -105.869501 -6.095737 18.234059 10.400284 -10.592608 -1.212732 -1.736411 1.327078 12.152604 -7.125000 0.000000 0.000000 100.180540 0.290669 9.015066 -12.120935 21.761406 -3.074054 1.239700 3.557622 4.873972 7.125000 0.000000 0.000000 
10.163246 17.887470 9.570856 -179.583236 -0.767404 -151.999384 -22.909620 -20.540029 -20.652885 -1.228303 5.043503 10.494656 0.958886 -0.086992 -18.216091 4.937800 -13.313400 -40.553100 27.967876 21.914273 -20.204607 1.136683 -5.175645 10.744927 -1.222294 -1.559367 -23.213395 -2.303500 9.471600 -27.282100 1.418669 -0.228713 -5.809231 -0.307568 -1.103427 12.649655 13.078461 -2.179973 17.070795 2.978600 -0.432200 2.884500 -105.871928 -6.101692 18.422376 10.404552 -10.597328 -1.216156 -1.740907 1.338845 12.020453 -7.125000 0.000000 0.000000 100.137221 0.322832 9.083042 -12.101806 21.731907 -3.065845 1.240853 3.555037 4.794579 7.125000 0.000000 0.000000 
10.163027 17.887906 9.572603 -179.555685 -0.737729 -151.981533 -22.869397 -20.568886 -20.639167 -1.233756 5.025530 10.445841 0.968799 -0.004983 -18.217413 4.829500 -13.189200 -40.080900 27.987767 21.974845 -20.253524 1.138073 -5.204563 10.800666 -1.220449 -1.625138 -23.217925 -2.428200 9.706100 -28.030100 1.421906 -0.209968 -5.816902 -0.279979 -1.093975 12.612432 13.075947 -2.172266 17.066083 2.980300 -0.429200 2.882700 -105.887296 -6.088184 18.525310 10.426242 -10.635255 -1.225928 -1.731789 1.358053 11.894824 -7.125000 0.000000 0.000000 100.081890 0.422425 9.137001 -12.025478 21.615630 -3.033110 1.246633 3.559733 4.741271 7.125000 0.000000 0.000000 
10.162918 17.888125 9.573695 -179.532842 -0.720516 -151.972250 -22.841233 -20.557293 -20.660078 -1.234703 5.034231 10.466202 0.974311 0.068976 -18.176531 4.947000 -13.323900 -40.593400 27.995166 22.089360 -20.248867 1.137607 -5.207068 10.795310 -1.217207 -1.577656 -23.190270 -2.376600 9.610000 -27.722700 1.421566 -0.201639 -5.820092 -0.278322 -1.090095 12.595876 13.070207 -2.169831 17.067078 2.978900 -0.428000 2.884300 -105.886537 -6.107712 18.561211 10.431522 -10.641682 -1.227632 -1.732253 1.357021 11.829027 -7.125000 0.000000 0.000000 100.069536 0.546641 9.114641 -11.967558 21.524959 -3.007663 1.245179 3.561987 4.743700 7.125000 0.000000 0.000000 
10.162481 17.887688 9.573368 -179.568629 -0.731206 -151.970992 -22.889812 -20.514251 -20.671578 -1.230580 5.036550 10.474275 0.961877 -0.022678 -18.156370 5.005900 -13.390500 -40.848300 27.943103 22.100572 -20.258504 1.136919 -5.215954 10.817991 -1.223229 -1.576695 -23.246720 -2.277800 9.422200 -27.125200 1.415255 -0.204147 -5.825436 -0.280129 -1.092519 12.566844 13.063256 -2.177578 17.073716 2.973200 -0.431500 2.887500 -105.876541 -6.070824 18.842006 10.477471 -10.714636 -1.243118 -1.742770 1.345255 11.517500 -7.125000 0.000000 0.000000 100.101683 0.512067 9.189817 -12.038927 21.632473 -3.040749 1.237658 3.578565 4.608682 7.125000 0.000000 0.000000 
10.161935 17.885831 9.573804 -179.611239 -0.746905 -151.963094 -22.937011 -20.493795 -20.671335 -1.227595 5.025876 10.447541 0.947594 -0.146737 -18.164216 4.914900 -13.287300 -40.453900 27.865673 22.145655 -20.337620 1.136292 -5.275766 10.955170 -1.235107 -1.668694 -23.383553 -2.306000 9.476300 -27.297000 1.414448 -0.212820 -5.827369 -0.262096 -1.099520 12.559904 13.055641 -2.177819 17.078375 2.965500 -0.430600 2.889800 -105.887550 -6.072166 19.021354 10.532173 -10.803765 -1.261582 -1.743781 1.339748 11.385457 -7.125000 0.000000 0.000000 100.103923 0.453471 9.282691 -12.098663 21.721754 -3.067599 1.242579 3.572889 4.459743 7.125000 0.000000 0.000000 
